<svg id="Layer_1" data-name="Layer 1" xmlns="http://www.w3.org/2000/svg" viewBox="0 0 432 216"><defs><style>.cls-1{fill:#f47c20;}</style></defs><path class="cls-1" d="M107.4,74.79s45.54,25.58,68.44,13.81c0,0-5.12,17.64-5.12,17.65-.2.69-2.74.63-3.28.67-1.73.12-3.45.37-5.18.56-8.67,1-17.62,3.22-24.18,9.3-1.61,1.22-3,2.83-4.52,4.21s-2.86,2.64-4.35,3.89a85.12,85.12,0,0,1-9.59,7c-7.14,4.44-16.85,8.83-25.14,4.83l3.71-23.43s30.45-.37,45.8-13.92c0,0-40.3-5.63-42.6-14.84Z"/><path class="cls-1" d="M195.73,119.25a14.47,14.47,0,0,1-6.21-1.26,9.93,9.93,0,0,1-4.22-3.6,10.21,10.21,0,0,1-1.52-5.65v-1.22h5.65v1.22a5,5,0,0,0,1.7,4.1,7,7,0,0,0,4.6,1.37,7,7,0,0,0,4.41-1.17,3.68,3.68,0,0,0,1.45-3,2.88,2.88,0,0,0-.71-2,5.15,5.15,0,0,0-2.09-1.28,27.43,27.43,0,0,0-3.32-.93l-1-.22a25.14,25.14,0,0,1-5.36-1.76,8.42,8.42,0,0,1-3.44-2.8,7.88,7.88,0,0,1-1.19-4.52,8.39,8.39,0,0,1,1.32-4.76,8.58,8.58,0,0,1,3.74-3,14,14,0,0,1,5.67-1.06,14.39,14.39,0,0,1,5.8,1.11,8.94,8.94,0,0,1,4,3.3,9.72,9.72,0,0,1,1.46,5.49v1.31h-5.65V97.53a5.16,5.16,0,0,0-.67-2.8,3.9,3.9,0,0,0-1.93-1.56,8,8,0,0,0-3-.5,6.21,6.21,0,0,0-3.85,1,3.25,3.25,0,0,0-1.23,2.68,3.1,3.1,0,0,0,.58,1.91,4.38,4.38,0,0,0,1.76,1.3,15.22,15.22,0,0,0,3,.91l1,.22a28.3,28.3,0,0,1,5.67,1.78,9.46,9.46,0,0,1,3.75,2.87,7.35,7.35,0,0,1,1.35,4.56,8.61,8.61,0,0,1-1.41,4.89,9.45,9.45,0,0,1-4,3.3A14.49,14.49,0,0,1,195.73,119.25Z"/><path class="cls-1" d="M218.81,119.25a11.39,11.39,0,0,1-5.67-1.37,9.65,9.65,0,0,1-3.82-3.86,12.12,12.12,0,0,1-1.37-5.89v-.52a12.23,12.23,0,0,1,1.35-5.89,9.56,9.56,0,0,1,3.78-3.86,11.34,11.34,0,0,1,5.65-1.37,10.48,10.48,0,0,1,5.51,1.41,9.7,9.7,0,0,1,3.65,3.91,12.37,12.37,0,0,1,1.3,5.8v1.87H213.51a4.86,4.86,0,0,0,1.65,3.6,5.56,5.56,0,0,0,3.83,1.39,4.89,4.89,0,0,0,3.39-1,7.07,7.07,0,0,0,1.65-2.21l4.47,2.34a13.64,13.64,0,0,1-1.76,2.46,9.6,9.6,0,0,1-3.06,2.26A11.16,11.16,0,0,1,218.81,119.25Zm-5.25-13.86h10.07a4.27,4.27,0,0,0-1.49-3,6,6,0,0,0-7,0A4.82,4.82,0,0,0,213.56,105.39Z"/><path class="cls-1" d="M231,118.64V97.1h5.38v2.82h.78a5.71,5.71,0,0,1,2-2.15,7.49,7.49,0,0,1,4.34-1,8.29,8.29,0,0,1,4.41,1.15,7.86,7.86,0,0,1,2.93,3.17,10.11,10.11,0,0,1,1.05,4.72v12.85h-5.48V106.22a5,5,0,0,0-1.19-3.65,4.59,4.59,0,0,0-3.41-1.22,4.78,4.78,0,0,0-3.91,1.68,7.07,7.07,0,0,0-1.39,4.67v10.94Z"/><path class="cls-1" d="M263.28,119.25a9.53,9.53,0,0,1-4.8-1.28,9.31,9.31,0,0,1-3.59-3.76,12.47,12.47,0,0,1-1.34-6v-.7a12.47,12.47,0,0,1,1.34-6,9.34,9.34,0,0,1,8.39-5,10,10,0,0,1,3.28.46,6.52,6.52,0,0,1,2.15,1.15A5.32,5.32,0,0,1,270,99.57h.78V88.24h5.47v30.4h-5.39V116h-.78a7,7,0,0,1-2.28,2.21A8.25,8.25,0,0,1,263.28,119.25Zm1.65-4.78a5.82,5.82,0,0,0,4.21-1.63,6.28,6.28,0,0,0,1.69-4.75v-.44a6.31,6.31,0,0,0-1.67-4.75,6.29,6.29,0,0,0-8.45,0,6.28,6.28,0,0,0-1.69,4.75v.44a6.28,6.28,0,0,0,1.69,4.75A5.84,5.84,0,0,0,264.93,114.47Z"/><path class="cls-1" d="M279.14,118.64V97.1h5.38v2.43h.78a3.45,3.45,0,0,1,1.59-1.91,5.24,5.24,0,0,1,2.58-.61h2.61v4.87h-2.69A5.25,5.25,0,0,0,286,103a4.16,4.16,0,0,0-1.35,3.41v12.25Z"/><path class="cls-1" d="M303,119.25a11.39,11.39,0,0,1-5.67-1.37,9.65,9.65,0,0,1-3.82-3.86,12.12,12.12,0,0,1-1.37-5.89v-.52a12.23,12.23,0,0,1,1.35-5.89,9.49,9.49,0,0,1,3.78-3.86,11.32,11.32,0,0,1,5.64-1.37,10.49,10.49,0,0,1,5.52,1.41,9.76,9.76,0,0,1,3.65,3.91,12.37,12.37,0,0,1,1.3,5.8v1.87H297.73a4.86,4.86,0,0,0,1.65,3.6,5.53,5.53,0,0,0,3.82,1.39,4.85,4.85,0,0,0,3.39-1,6.77,6.77,0,0,0,1.65-2.21l4.48,2.34a13.64,13.64,0,0,1-1.76,2.46,9.6,9.6,0,0,1-3.06,2.26A11.16,11.16,0,0,1,303,119.25Zm-5.26-13.86h10.08a4.24,4.24,0,0,0-1.5-3,5.09,5.09,0,0,0-3.45-1.13,5.15,5.15,0,0,0-3.52,1.13A4.88,4.88,0,0,0,297.77,105.39Z"/><path class="cls-1" d="M317.45,127.33v-4.78h11.73c.81,0,1.21-.43,1.21-1.3v-5.43h-.78a5.34,5.34,0,0,1-1.09,1.48,5.43,5.43,0,0,1-2,1.21,9.15,9.15,0,0,1-3.22.48,8.29,8.29,0,0,1-4.41-1.15,7.86,7.86,0,0,1-2.93-3.19,10.25,10.25,0,0,1-1-4.69V97.1h5.47v12.42a5,5,0,0,0,1.2,3.65,4.56,4.56,0,0,0,3.41,1.22,4.8,4.8,0,0,0,3.91-1.68,7.13,7.13,0,0,0,1.39-4.67V97.1h5.47v25.37a4.88,4.88,0,0,1-1.3,3.54,4.67,4.67,0,0,1-3.48,1.32Z"/></svg>